<svg width="66" height="51" viewBox="0 0 66 51" fill="none" xmlns="http://www.w3.org/2000/svg">
<path d="M0.888 13.036C0.808 13.036 0.74 13.02 0.684 12.988C0.628 12.956 0.6 12.896 0.6 12.808C0.6 12.696 0.628 12.564 0.684 12.412C0.748 12.26 0.816 12.108 0.888 11.956C0.96 11.804 1.02 11.68 1.068 11.584C1.108 11.512 1.16 11.4 1.224 11.248C1.296 11.088 1.368 10.924 1.44 10.756C1.52 10.58 1.584 10.432 1.632 10.312C1.688 10.192 1.716 10.132 1.716 10.132C1.644 10.212 1.548 10.324 1.428 10.468C1.316 10.612 1.192 10.764 1.056 10.924C0.928 11.076 0.808 11.22 0.696 11.356C0.592 11.492 0.516 11.592 0.468 11.656C0.444 11.688 0.424 11.704 0.408 11.704C0.392 11.704 0.384 11.684 0.384 11.644C0.384 11.58 0.404 11.52 0.444 11.464C0.54 11.344 0.656 11.2 0.792 11.032C0.928 10.856 1.064 10.68 1.2 10.504C1.344 10.328 1.468 10.172 1.572 10.036C1.508 10.036 1.424 10.04 1.32 10.048C1.224 10.056 1.136 10.068 1.056 10.084C0.976 10.092 0.932 10.096 0.924 10.096C0.884 10.096 0.888 10.064 0.936 10C0.984 9.936 1.048 9.872 1.128 9.808C1.208 9.744 1.268 9.712 1.308 9.712C1.316 9.712 1.38 9.716 1.5 9.724C1.62 9.724 1.708 9.724 1.764 9.724C1.924 9.508 2.08 9.26 2.232 8.98C2.392 8.7 2.548 8.392 2.7 8.056C2.764 8.048 2.872 8.004 3.024 7.924C3.184 7.836 3.308 7.748 3.396 7.66C3.436 7.62 3.468 7.6 3.492 7.6C3.54 7.6 3.54 7.632 3.492 7.696C3.436 7.76 3.34 7.896 3.204 8.104C3.068 8.304 2.916 8.548 2.748 8.836C2.58 9.116 2.42 9.412 2.268 9.724H3.24C3.328 9.724 3.372 9.736 3.372 9.76C3.372 9.792 3.312 9.824 3.192 9.856C3.056 9.896 2.912 9.92 2.76 9.928C2.616 9.936 2.48 9.952 2.352 9.976C2.232 10 2.144 10.052 2.088 10.132C2.04 10.188 1.972 10.308 1.884 10.492C1.796 10.676 1.7 10.888 1.596 11.128C1.5 11.36 1.416 11.596 1.344 11.836C1.272 12.068 1.228 12.264 1.212 12.424V12.472C1.212 12.536 1.232 12.588 1.272 12.628C1.312 12.668 1.352 12.688 1.392 12.688C1.496 12.688 1.628 12.624 1.788 12.496C1.956 12.368 2.128 12.216 2.304 12.04C2.48 11.856 2.632 11.688 2.76 11.536C2.816 11.472 2.864 11.412 2.904 11.356C2.952 11.3 2.98 11.264 2.988 11.248C3.004 11.28 3.012 11.304 3.012 11.32C3.012 11.368 2.996 11.42 2.964 11.476C2.94 11.532 2.912 11.58 2.88 11.62C2.728 11.82 2.544 12.032 2.328 12.256C2.112 12.472 1.88 12.656 1.632 12.808C1.392 12.96 1.144 13.036 0.888 13.036ZM4.56291 13.072C4.44291 13.072 4.33491 13.048 4.23891 13C4.15091 12.952 4.10691 12.864 4.10691 12.736C4.10691 12.664 4.12291 12.584 4.15491 12.496C4.22691 12.312 4.32291 12.088 4.44291 11.824C4.57091 11.56 4.69891 11.304 4.82691 11.056C4.95491 10.8 5.05491 10.592 5.12691 10.432C5.17491 10.336 5.19891 10.268 5.19891 10.228C5.19891 10.156 5.15891 10.14 5.07891 10.18C4.99891 10.22 4.91091 10.276 4.81491 10.348C4.71891 10.42 4.64691 10.476 4.59891 10.516C4.39091 10.708 4.17091 10.936 3.93891 11.2C3.71491 11.456 3.50691 11.728 3.31491 12.016C3.13091 12.296 2.98691 12.576 2.88291 12.856C2.87491 12.904 2.82291 12.944 2.72691 12.976C2.63091 13.008 2.54291 13.024 2.46291 13.024C2.33491 13.024 2.28691 12.984 2.31891 12.904C2.50291 12.488 2.69091 12.028 2.88291 11.524C3.08291 11.02 3.30691 10.504 3.55491 9.976C3.73891 9.576 3.94291 9.164 4.16691 8.74C4.39891 8.316 4.65491 7.912 4.93491 7.528C5.21491 7.136 5.52291 6.792 5.85891 6.496C6.15491 6.24 6.47891 6.032 6.83091 5.872C7.19091 5.704 7.57891 5.62 7.99491 5.62C8.17891 5.62 8.33891 5.66 8.47491 5.74C8.61091 5.812 8.68691 5.944 8.70291 6.136V6.244C8.70291 6.356 8.69091 6.468 8.66691 6.58C8.65891 6.612 8.62691 6.628 8.57091 6.628C8.54691 6.628 8.53891 6.624 8.54691 6.616C8.57891 6.408 8.52291 6.26 8.37891 6.172C8.24291 6.084 8.06691 6.04 7.85091 6.04C7.45891 6.04 7.09891 6.112 6.77091 6.256C6.44291 6.4 6.13891 6.592 5.85891 6.832C5.42691 7.208 5.05091 7.688 4.73091 8.272C4.41091 8.856 4.13491 9.452 3.90291 10.06C3.79091 10.356 3.67891 10.652 3.56691 10.948C3.46291 11.244 3.36291 11.52 3.26691 11.776C3.62691 11.296 3.97091 10.884 4.29891 10.54C4.63491 10.196 4.92691 9.952 5.17491 9.808C5.37491 9.696 5.55491 9.64 5.71491 9.64C5.86691 9.64 5.94291 9.704 5.94291 9.832C5.94291 9.944 5.88691 10.088 5.77491 10.264C5.71891 10.352 5.63091 10.5 5.51091 10.708C5.39891 10.916 5.27891 11.144 5.15091 11.392C5.03091 11.632 4.92691 11.856 4.83891 12.064C4.75091 12.272 4.70691 12.424 4.70691 12.52C4.70691 12.648 4.76291 12.712 4.87491 12.712C4.93891 12.712 5.01091 12.692 5.09091 12.652C5.17891 12.612 5.24291 12.576 5.28291 12.544C5.49891 12.384 5.71091 12.188 5.91891 11.956C6.12691 11.724 6.30291 11.52 6.44691 11.344C6.45491 11.336 6.45891 11.348 6.45891 11.38C6.45891 11.412 6.45091 11.46 6.43491 11.524C6.42691 11.58 6.40291 11.628 6.36291 11.668C6.27491 11.788 6.18291 11.904 6.08691 12.016C5.99891 12.12 5.91091 12.224 5.82291 12.328C5.67091 12.504 5.48691 12.672 5.27091 12.832C5.06291 12.992 4.82691 13.072 4.56291 13.072ZM6.99825 13.096C6.67025 13.096 6.44225 13.032 6.31425 12.904C6.18625 12.776 6.12225 12.62 6.12225 12.436C6.12225 12.204 6.18225 11.956 6.30225 11.692C6.43025 11.428 6.55025 11.204 6.66225 11.02C6.79025 10.828 6.96225 10.628 7.17825 10.42C7.39425 10.212 7.63025 10.036 7.88625 9.892C8.14225 9.748 8.39025 9.676 8.63025 9.676C8.83825 9.676 8.98225 9.728 9.06225 9.832C9.14225 9.928 9.18225 10.044 9.18225 10.18C9.18225 10.428 9.10625 10.632 8.95425 10.792C8.81025 10.952 8.63025 11.084 8.41425 11.188C8.19825 11.284 7.99025 11.364 7.79025 11.428C7.67025 11.46 7.53025 11.492 7.37025 11.524C7.21025 11.556 7.05825 11.572 6.91425 11.572C6.85825 11.716 6.81425 11.856 6.78225 11.992C6.75025 12.128 6.73425 12.252 6.73425 12.364C6.73425 12.5 6.76625 12.612 6.83025 12.7C6.90225 12.788 7.01825 12.832 7.17825 12.832C7.24225 12.832 7.31825 12.824 7.40625 12.808C7.49425 12.792 7.59025 12.768 7.69425 12.736C7.93425 12.656 8.17025 12.528 8.40225 12.352C8.63425 12.176 8.84625 11.988 9.03825 11.788C9.23825 11.58 9.39025 11.408 9.49425 11.272C9.51825 11.296 9.53025 11.324 9.53025 11.356C9.53025 11.396 9.50225 11.46 9.44625 11.548C9.28625 11.772 9.07825 12.004 8.82225 12.244C8.56625 12.484 8.28225 12.688 7.97025 12.856C7.65825 13.016 7.33425 13.096 6.99825 13.096ZM7.01025 11.332C7.11425 11.34 7.23025 11.34 7.35825 11.332C7.49425 11.316 7.62625 11.288 7.75425 11.248C8.08225 11.152 8.31825 11 8.46225 10.792C8.61425 10.576 8.69025 10.384 8.69025 10.216C8.69025 10.12 8.67025 10.04 8.63025 9.976C8.59025 9.912 8.52625 9.88 8.43825 9.88C8.20625 9.88 7.99825 9.968 7.81425 10.144C7.63025 10.312 7.47025 10.508 7.33425 10.732C7.19825 10.956 7.09025 11.156 7.01025 11.332Z" fill="black"/>
<path d="M18.94 18.198C18.236 18.198 17.576 17.9927 16.96 17.582C16.344 17.1567 15.8013 16.5773 15.332 15.844C14.8773 15.1107 14.518 14.2527 14.254 13.27C14.0047 12.2727 13.88 11.202 13.88 10.058C13.88 8.914 14.0047 7.85067 14.254 6.868C14.518 5.88533 14.8773 5.02733 15.332 4.294C15.8013 3.546 16.344 2.96667 16.96 2.556C17.576 2.14533 18.236 1.94 18.94 1.94C19.644 1.94 20.2967 2.14533 20.898 2.556C21.514 2.96667 22.0567 3.546 22.526 4.294C22.9953 5.02733 23.3547 5.88533 23.604 6.868C23.868 7.85067 24 8.914 24 10.058C24 11.202 23.868 12.2727 23.604 13.27C23.3547 14.2527 22.9953 15.1107 22.526 15.844C22.0567 16.5773 21.514 17.1567 20.898 17.582C20.2967 17.9927 19.644 18.198 18.94 18.198ZM18.94 17.604C19.9813 17.604 20.7953 16.9807 21.382 15.734C21.9687 14.4873 22.262 12.5953 22.262 10.058C22.262 7.52067 21.9687 5.636 21.382 4.404C20.7953 3.15733 19.9813 2.534 18.94 2.534C17.9133 2.534 17.0993 3.15733 16.498 4.404C15.9113 5.636 15.618 7.52067 15.618 10.058C15.618 12.5953 15.9113 14.4873 16.498 15.734C17.0993 16.9807 17.9133 17.604 18.94 17.604ZM25.3209 18C25.1449 18 25.0569 17.9193 25.0569 17.758C25.0569 17.6113 25.1375 17.5233 25.2989 17.494L25.6069 17.45C25.9149 17.406 26.1422 17.318 26.2889 17.186C26.4355 17.054 26.5089 16.834 26.5089 16.526V3.92C26.5089 3.656 26.4649 3.47267 26.3769 3.37C26.3035 3.26733 26.1642 3.20867 25.9589 3.194L25.4529 3.128C25.2915 3.09867 25.2109 3.01067 25.2109 2.864C25.2109 2.71733 25.2915 2.62933 25.4529 2.6C25.8635 2.512 26.2155 2.40933 26.5089 2.292C26.8022 2.17467 27.0442 2.05733 27.2349 1.94C27.4695 1.79333 27.6455 1.72 27.7629 1.72C27.9242 1.72 28.0049 1.83733 28.0049 2.072V16.526C28.0049 16.834 28.0489 17.054 28.1369 17.186C28.2395 17.3033 28.4449 17.384 28.7529 17.428L29.2589 17.494C29.4202 17.5233 29.5009 17.6113 29.5009 17.758C29.5009 17.9193 29.4129 18 29.2369 18H25.3209ZM33.6968 18.198C33.0515 18.198 32.4722 17.978 31.9588 17.538C31.4602 17.0833 31.0715 16.46 30.7928 15.668C30.5142 14.8613 30.3748 13.93 30.3748 12.874C30.3748 11.642 30.5655 10.564 30.9468 9.64C31.3282 8.70133 31.8562 7.968 32.5308 7.44C33.2055 6.912 33.9682 6.648 34.8188 6.648C35.0242 6.648 35.2295 6.67 35.4348 6.714C35.6402 6.74333 35.8382 6.802 36.0288 6.89C36.2635 7.00733 36.3808 6.956 36.3808 6.736V3.92C36.3808 3.656 36.3368 3.47267 36.2488 3.37C36.1755 3.26733 36.0362 3.20867 35.8308 3.194L35.2588 3.128C35.0975 3.09867 35.0168 3.01067 35.0168 2.864C35.0168 2.71733 35.0975 2.62933 35.2588 2.6C35.7282 2.512 36.1022 2.40933 36.3808 2.292C36.6742 2.17467 36.9162 2.05733 37.1068 1.94C37.3415 1.79333 37.5175 1.72 37.6348 1.72C37.7962 1.72 37.8768 1.83733 37.8768 2.072V15.91C37.8768 16.526 38.0308 16.834 38.3388 16.834C38.5295 16.834 38.7055 16.7093 38.8668 16.46C39.0282 16.196 39.1088 15.756 39.1088 15.14C39.1088 14.9053 39.2042 14.788 39.3948 14.788C39.5708 14.788 39.6588 14.9127 39.6588 15.162C39.6588 16.2327 39.4755 17.01 39.1088 17.494C38.7422 17.9633 38.3242 18.198 37.8548 18.198C37.4295 18.198 37.1068 18.0587 36.8868 17.78C36.6668 17.4867 36.5202 17.142 36.4468 16.746C36.4322 16.6287 36.3808 16.57 36.2928 16.57C36.2048 16.5553 36.1242 16.6067 36.0508 16.724C35.6402 17.296 35.2662 17.6847 34.9288 17.89C34.5915 18.0953 34.1808 18.198 33.6968 18.198ZM34.1808 17.186C34.5622 17.186 34.9142 17.0613 35.2368 16.812C35.5742 16.548 35.8455 16.196 36.0508 15.756C36.2708 15.316 36.3808 14.8247 36.3808 14.282V9.332C36.3808 8.672 36.2268 8.15133 35.9188 7.77C35.6255 7.38867 35.2368 7.198 34.7528 7.198C33.9315 7.198 33.2642 7.682 32.7508 8.65C32.2522 9.60333 32.0028 10.9087 32.0028 12.566C32.0028 14.0767 32.1935 15.228 32.5748 16.02C32.9708 16.7973 33.5062 17.186 34.1808 17.186ZM15.596 47C15.376 47 15.266 46.9193 15.266 46.758C15.266 46.5967 15.3613 46.5087 15.552 46.494L16.542 46.34C16.8353 46.296 17.0333 46.2227 17.136 46.12C17.2387 46.0027 17.29 45.79 17.29 45.482V32.282C17.29 32.0767 17.246 31.93 17.158 31.842C17.07 31.754 16.8867 31.71 16.608 31.71C16.0653 31.71 15.53 31.9447 15.002 32.414C14.474 32.8833 14.1293 33.6387 13.968 34.68L13.858 35.406C13.8287 35.5967 13.726 35.692 13.55 35.692C13.33 35.692 13.2347 35.5673 13.264 35.318L13.462 31.336C13.4913 30.9987 13.6233 30.83 13.858 30.83C13.9607 30.83 14.056 30.8593 14.144 30.918C14.232 30.962 14.3787 31.0133 14.584 31.072C14.804 31.1307 15.1487 31.16 15.618 31.16H20.524C20.9933 31.16 21.3307 31.1307 21.536 31.072C21.756 31.0133 21.91 30.962 21.998 30.918C22.1007 30.8593 22.196 30.83 22.284 30.83C22.5187 30.83 22.6507 30.9987 22.68 31.336L22.878 35.318C22.9073 35.5673 22.812 35.692 22.592 35.692C22.416 35.692 22.3133 35.5967 22.284 35.406L22.174 34.68C22.0273 33.6387 21.69 32.8833 21.162 32.414C20.634 31.9447 20.0913 31.71 19.534 31.71C19.2553 31.71 19.072 31.754 18.984 31.842C18.896 31.93 18.852 32.0767 18.852 32.282V45.482C18.852 45.79 18.9033 46.0027 19.006 46.12C19.1233 46.2227 19.3213 46.296 19.6 46.34L20.59 46.494C20.7807 46.5087 20.876 46.5967 20.876 46.758C20.876 46.9193 20.766 47 20.546 47H15.596ZM24.3627 47.198C23.7467 47.198 23.2407 47.0073 22.8447 46.626C22.4487 46.23 22.2507 45.7093 22.2507 45.064C22.2507 44.4333 22.4487 43.8393 22.8447 43.282C23.2407 42.71 23.7833 42.1967 24.4727 41.742C25.162 41.2873 25.9467 40.9207 26.8267 40.642C27.0173 40.5833 27.1127 40.4587 27.1127 40.268V38.266C27.1127 37.562 27.0027 37.0633 26.7827 36.77C26.5627 36.462 26.262 36.308 25.8807 36.308C25.514 36.308 25.1767 36.4767 24.8687 36.814C24.5753 37.1367 24.3627 37.6867 24.2307 38.464C24.1573 38.9333 23.996 39.278 23.7467 39.498C23.512 39.7033 23.27 39.806 23.0207 39.806C22.61 39.806 22.4047 39.6007 22.4047 39.19C22.4047 38.7647 22.522 38.3467 22.7567 37.936C23.006 37.5107 23.3287 37.1293 23.7247 36.792C24.1207 36.44 24.5533 36.1613 25.0227 35.956C25.492 35.7507 25.9613 35.648 26.4307 35.648C27.8827 35.648 28.6087 36.4913 28.6087 38.178V44.91C28.6087 45.526 28.7627 45.834 29.0707 45.834C29.2613 45.834 29.4373 45.7093 29.5987 45.46C29.76 45.196 29.8407 44.756 29.8407 44.14C29.8407 43.9053 29.936 43.788 30.1267 43.788C30.3027 43.788 30.3907 43.9127 30.3907 44.162C30.3907 45.2327 30.2 46.01 29.8187 46.494C29.452 46.9633 29.034 47.198 28.5647 47.198C28.2127 47.198 27.934 47.0587 27.7287 46.78C27.5233 46.4867 27.384 46.142 27.3107 45.746C27.296 45.5993 27.23 45.526 27.1127 45.526C27.01 45.5113 26.9073 45.5773 26.8047 45.724C26.4527 46.208 26.0933 46.5747 25.7267 46.824C25.36 47.0733 24.9053 47.198 24.3627 47.198ZM24.9567 46.186C25.338 46.186 25.69 46.054 26.0127 45.79C26.3353 45.5113 26.5993 45.1447 26.8047 44.69C27.01 44.2353 27.1127 43.722 27.1127 43.15V41.544C27.1127 41.2653 26.9587 41.1847 26.6507 41.302C25.756 41.6247 25.0593 42.072 24.5607 42.644C24.0767 43.2013 23.8347 43.876 23.8347 44.668C23.8347 45.68 24.2087 46.186 24.9567 46.186ZM34.391 47.198C34.259 47.198 34.1637 47.1173 34.105 46.956L31.179 37.254C31.0764 36.902 30.9737 36.6747 30.871 36.572C30.783 36.4693 30.6364 36.396 30.431 36.352L30.101 36.286C29.9104 36.242 29.815 36.1467 29.815 36C29.815 35.8533 29.9177 35.78 30.123 35.78H33.753C33.9584 35.78 34.061 35.8533 34.061 36C34.061 36.1613 33.9657 36.2567 33.775 36.286L33.423 36.33C33.071 36.374 32.851 36.462 32.763 36.594C32.675 36.7113 32.675 36.9313 32.763 37.254L34.589 43.612C34.633 43.7733 34.7064 43.854 34.809 43.854C34.9117 43.854 34.985 43.7733 35.029 43.612L36.811 37.65C36.9284 37.254 36.9577 36.9607 36.899 36.77C36.855 36.5647 36.6497 36.4327 36.283 36.374L35.821 36.286C35.6304 36.242 35.535 36.1467 35.535 36C35.535 35.8533 35.6377 35.78 35.843 35.78H38.637C38.8424 35.78 38.945 35.8607 38.945 36.022C38.945 36.1687 38.857 36.2713 38.681 36.33L38.483 36.396C38.263 36.4693 38.0724 36.6013 37.911 36.792C37.7644 36.9827 37.6177 37.3127 37.471 37.782L34.677 46.956C34.6184 47.1173 34.523 47.198 34.391 47.198ZM42.726 47.198C42.022 47.198 41.3913 46.9633 40.834 46.494C40.2766 46.0247 39.8293 45.3647 39.492 44.514C39.1693 43.6487 39.008 42.6513 39.008 41.522C39.008 40.3633 39.1766 39.344 39.514 38.464C39.8513 37.584 40.3133 36.8947 40.9 36.396C41.4866 35.8973 42.1393 35.648 42.858 35.648C43.7233 35.648 44.42 36.0073 44.948 36.726C45.4906 37.43 45.762 38.5813 45.762 40.18C45.762 40.664 45.5786 40.906 45.212 40.906H41.032C40.7386 40.906 40.592 41.0747 40.592 41.412C40.592 42.9667 40.8193 44.1327 41.274 44.91C41.7286 45.6873 42.308 46.076 43.012 46.076C43.5693 46.076 44.024 45.878 44.376 45.482C44.728 45.086 45.014 44.4187 45.234 43.48C45.278 43.3187 45.3733 43.238 45.52 43.238C45.696 43.238 45.762 43.3847 45.718 43.678C45.4833 44.9833 45.1093 45.9 44.596 46.428C44.0826 46.9413 43.4593 47.198 42.726 47.198ZM40.966 40.356H43.188C43.892 40.356 44.244 39.9893 44.244 39.256C44.244 38.3027 44.1266 37.5547 43.892 37.012C43.6573 36.4693 43.3053 36.198 42.836 36.198C42.264 36.198 41.78 36.528 41.384 37.188C41.0026 37.848 40.7533 38.7867 40.636 40.004C40.6066 40.2387 40.7166 40.356 40.966 40.356ZM49.7103 37.188C50.3116 36.1613 51.0376 35.648 51.8883 35.648C52.3723 35.648 52.7316 35.7947 52.9663 36.088C53.2009 36.3667 53.3183 36.682 53.3183 37.034C53.3183 37.3127 53.2449 37.54 53.0983 37.716C52.9663 37.892 52.7536 37.98 52.4603 37.98C52.2256 37.98 52.0496 37.9287 51.9323 37.826C51.8296 37.7087 51.7416 37.5767 51.6683 37.43C51.6096 37.2833 51.5363 37.1587 51.4483 37.056C51.3603 36.9387 51.2136 36.88 51.0083 36.88C50.7443 36.88 50.4949 37.0413 50.2603 37.364C50.0256 37.672 49.8276 38.09 49.6663 38.618C49.5196 39.146 49.4463 39.7473 49.4463 40.422V45.526C49.4463 45.834 49.4903 46.054 49.5783 46.186C49.6809 46.318 49.8863 46.3987 50.1943 46.428L50.7883 46.494C50.9496 46.5233 51.0303 46.604 51.0303 46.736C51.0303 46.912 50.9203 47 50.7003 47H46.9823C46.7623 47 46.6523 46.9193 46.6523 46.758C46.6523 46.626 46.7476 46.538 46.9383 46.494L47.2023 46.45C47.5103 46.3913 47.7083 46.3033 47.7963 46.186C47.8989 46.054 47.9503 45.834 47.9503 45.526V38.134C47.9503 37.87 47.9063 37.694 47.8183 37.606C47.7449 37.5033 47.6056 37.4373 47.4003 37.408L46.9383 37.342C46.7476 37.3273 46.6523 37.2467 46.6523 37.1C46.6523 36.9827 46.7696 36.902 47.0043 36.858C47.4589 36.7847 47.8036 36.6673 48.0383 36.506C48.2876 36.3447 48.5443 36.1467 48.8083 35.912C48.9403 35.78 49.0503 35.714 49.1383 35.714C49.2703 35.714 49.3363 35.802 49.3363 35.978V37.166C49.3363 37.2687 49.3803 37.3347 49.4683 37.364C49.5563 37.3787 49.6369 37.32 49.7103 37.188ZM53.9862 47C53.7662 47 53.6562 46.9193 53.6562 46.758C53.6562 46.626 53.7515 46.538 53.9422 46.494L54.2062 46.45C54.5142 46.3913 54.7122 46.3033 54.8002 46.186C54.9028 46.054 54.9542 45.834 54.9542 45.526V38.134C54.9542 37.87 54.9102 37.694 54.8222 37.606C54.7488 37.5033 54.6095 37.4373 54.4042 37.408L53.9422 37.342C53.7515 37.3273 53.6562 37.2467 53.6562 37.1C53.6562 36.9827 53.7735 36.902 54.0082 36.858C54.4628 36.7847 54.8075 36.6673 55.0422 36.506C55.2915 36.3447 55.5482 36.1467 55.8122 35.912C55.9442 35.78 56.0542 35.714 56.1422 35.714C56.2742 35.714 56.3402 35.802 56.3402 35.978V36.968C56.3402 37.1 56.3842 37.188 56.4722 37.232C56.5748 37.2613 56.6848 37.2173 56.8022 37.1C57.3888 36.5427 57.9022 36.1613 58.3422 35.956C58.7968 35.7507 59.2735 35.648 59.7722 35.648C60.4322 35.648 60.9602 35.8827 61.3562 36.352C61.7522 36.8067 61.9502 37.4813 61.9502 38.376V45.526C61.9502 45.834 61.9942 46.054 62.0822 46.186C62.1848 46.3033 62.3902 46.384 62.6982 46.428L63.1822 46.494C63.3435 46.5233 63.4242 46.6113 63.4242 46.758C63.4242 46.9193 63.3362 47 63.1602 47H59.4642C59.2588 47 59.1562 46.9193 59.1562 46.758C59.1562 46.6113 59.2368 46.5233 59.3982 46.494L59.7062 46.45C60.0142 46.406 60.2122 46.318 60.3002 46.186C60.4028 46.054 60.4542 45.834 60.4542 45.526V38.618C60.4542 37.8993 60.3222 37.3933 60.0582 37.1C59.7942 36.8067 59.4202 36.66 58.9362 36.66C58.4668 36.66 58.0415 36.7993 57.6602 37.078C57.2935 37.342 57.0002 37.7013 56.7802 38.156C56.5602 38.596 56.4502 39.0873 56.4502 39.63V45.526C56.4502 45.834 56.4942 46.054 56.5822 46.186C56.6848 46.318 56.8902 46.3987 57.1982 46.428L57.7922 46.494C57.9535 46.5233 58.0342 46.604 58.0342 46.736C58.0342 46.912 57.9242 47 57.7042 47H53.9862Z" fill="black"/>
</svg>
